<svg xmlns="http://www.w3.org/2000/svg" xmlns:xlink="http://www.w3.org/1999/xlink" viewBox="0 0 45.28 45.28"><defs><style>.cls-1{fill:none;}.cls-2{isolation:isolate;}.cls-3{clip-path:url(#clip-path);}.cls-4{mix-blend-mode:hard-light;fill:url(#Dégradé_sans_nom_4);}.cls-5{fill:#fff;}</style><clipPath id="clip-path" transform="translate(0.02 0.03)"><circle class="cls-1" cx="22.62" cy="22.62" r="22.62"/></clipPath><linearGradient id="Dégradé_sans_nom_4" x1="314.36" y1="409.11" x2="359.64" y2="409.11" gradientTransform="translate(431.75 -314.36) rotate(90)" gradientUnits="userSpaceOnUse"><stop offset="0" stop-color="#ec5f64"/><stop offset="1" stop-color="#cd2a25"/></linearGradient></defs><g class="cls-2"><g id="Calque_2" data-name="Calque 2"><g id="Texte"><g class="cls-3"><circle class="cls-4" cx="22.64" cy="22.64" r="22.64"/><path class="cls-5" d="M42.86,10.25a6,6,0,0,0-.26-.82c-.07-.2-.24-.21-.38,0a1.72,1.72,0,0,0-.22.33,20.36,20.36,0,0,0-1.4,3,4.82,4.82,0,0,0-.35,1.58,2.2,2.2,0,0,0,.1.68c.15.43.53.54,1,.34l.27-.13,0,0-.09.24c-.12.23-.23.47-.37.69a4.62,4.62,0,0,1-1.39,1.43,4.14,4.14,0,0,1-5-.32,5.08,5.08,0,0,1-.84-1A6.38,6.38,0,0,1,33,14.09c0-.06-.05-.12-.09-.22a2.08,2.08,0,0,0-.25.21,7.32,7.32,0,0,0-1.5,2.15,8.24,8.24,0,0,0-.68,3,5,5,0,0,0,.56,2.5.2.2,0,0,1-.07.29,3.94,3.94,0,0,1-1.74.88,4.89,4.89,0,0,1-4.16-.88,5.15,5.15,0,0,1-1.86-2.89,2.94,2.94,0,0,1,0-1.83.43.43,0,0,0,0-.16.29.29,0,0,0-.33.13c-.13.15-.24.31-.35.46a10,10,0,0,0-1.3,2.49,11.08,11.08,0,0,0-.53,4.84c.05.5.11,1,.17,1.49a9.59,9.59,0,0,1-2.35,7.56,10.66,10.66,0,0,1-3,2.49,10.13,10.13,0,0,1-5,1.27,7.61,7.61,0,0,1-2.73-.47,5.79,5.79,0,0,1-3.71-7.3,13.38,13.38,0,0,1,1.7-3.56,35.09,35.09,0,0,1,3.49-4.34c.65-.71,1.33-1.39,2-2.06a33.38,33.38,0,0,1,2.35-5l.82-1.32c-1.34,1.28-2.69,2.56-4,3.86a44.66,44.66,0,0,0-4.91,5.59A26,26,0,0,0,1.8,30.6a15.06,15.06,0,0,0-.63,2.95,12.57,12.57,0,0,0,.16,4.15,6.93,6.93,0,0,0,2.2,3.85,5.75,5.75,0,0,0,2.33,1.27A8.21,8.21,0,0,0,10,42.9a12.84,12.84,0,0,0,4.91-2.26,16.3,16.3,0,0,0,3.31-3.27,21.25,21.25,0,0,0,3.18-5.9,12.19,12.19,0,0,0,.91-4.4.3.3,0,0,1,0-.11l.08,0a4.81,4.81,0,0,0,1.92.87,6.55,6.55,0,0,0,4.34-.57,5.49,5.49,0,0,0,2.77-2.89,7.08,7.08,0,0,0,.52-2.12c0-.08,0-.16.05-.3l.27.24a4.36,4.36,0,0,0,2.4,1.12,6.22,6.22,0,0,0,3.66-.57A6.54,6.54,0,0,0,41,20.44a11.36,11.36,0,0,0,1.38-2.93A17.49,17.49,0,0,0,43.12,13,8.49,8.49,0,0,0,42.86,10.25Z" transform="translate(0.02 0.03)"/></g></g></g></g></svg>